<svg width="715" height="806" viewBox="0 0 715 806" fill="none" xmlns="http://www.w3.org/2000/svg">
<path fill-rule="evenodd" clip-rule="evenodd" d="M392.206 0.607399C483.425 4.94157 579.379 38.8412 635.075 109.419C686.573 174.677 651.971 267.339 666.681 348.422C678.507 413.609 722.644 471.433 712.629 536.908C701.534 609.446 666.16 678.669 608.895 726.214C548.918 776.01 469.479 817.851 392.206 802.941C317.31 788.489 293.979 693.714 229.99 653.104C159.976 608.67 37.9131 633.022 5.91028 557.779C-25.4405 484.069 77.1598 419.319 97.7018 342.076C120.456 256.512 73.1635 153.143 131.509 85.4931C191.956 15.4065 298.403 -3.8495 392.206 0.607399Z" class="hero-bg-path"/>
</svg>
