<svg width="24" height="24" viewBox="0 0 24 24" fill="none" xmlns="http://www.w3.org/2000/svg">
<path d="M8.8705 14.741C7.23981 14.741 5.85372 14.1703 4.71223 13.0288C3.57074 11.8873 3 10.5012 3 8.8705C3 8.54436 3.02446 8.21823 3.07338 7.89209C3.1223 7.56595 3.21199 7.25612 3.34245 6.96259C3.42398 6.79952 3.5259 6.67722 3.6482 6.59568C3.7705 6.51415 3.90504 6.45707 4.0518 6.42446C4.19856 6.39185 4.3494 6.39592 4.50432 6.43669C4.65923 6.47746 4.80192 6.56307 4.93237 6.69353L7.50072 9.26187L9.26187 7.50072L6.69353 4.93237C6.56307 4.80192 6.47746 4.65923 6.43669 4.50432C6.39592 4.3494 6.39185 4.19856 6.42446 4.0518C6.45707 3.90504 6.51415 3.7705 6.59568 3.6482C6.67722 3.5259 6.79952 3.42398 6.96259 3.34245C7.25612 3.21199 7.56595 3.1223 7.89209 3.07338C8.21823 3.02446 8.54436 3 8.8705 3C10.5012 3 11.8873 3.57074 13.0288 4.71223C14.1703 5.85372 14.741 7.23981 14.741 8.8705C14.741 9.24556 14.7084 9.60024 14.6432 9.93453C14.5779 10.2688 14.4801 10.599 14.3496 10.9252L19.2906 15.8173C19.7635 16.2902 20 16.8691 20 17.554C20 18.2388 19.7635 18.8177 19.2906 19.2906C18.8177 19.7635 18.2388 20 17.554 20C16.8691 20 16.2902 19.7554 15.8173 19.2662L10.9252 14.3496C10.599 14.4801 10.2688 14.5779 9.93453 14.6432C9.60024 14.7084 9.24556 14.741 8.8705 14.741Z" fill="#1D2021"/>
</svg>
