<svg width="24" height="24" viewBox="0 0 24 24" fill="none" xmlns="http://www.w3.org/2000/svg">
<path fill-rule="evenodd" clip-rule="evenodd" d="M12 3C7.02826 3 3 7.03118 3 11.9984C3 16.72 6.64272 20.5956 11.27 20.9675V21H12C16.9717 21 21 16.9688 21 12.0016C21 7.03481 16.9721 3 12 3ZM13.9887 19.2752C13.4241 19.4292 12.833 19.5192 12.2238 19.5369H12C10.9842 19.5369 10.015 19.3357 9.13032 18.971C9.98692 15.8846 12.309 13.6738 14.9669 12.686C15.4256 14.9089 15.0927 17.2911 13.9887 19.2752ZM14.5622 11.28C11.5287 12.3726 8.87935 14.8338 7.81482 18.2687C5.79254 16.9161 4.46006 14.6118 4.46006 11.9984C4.46006 11.0716 4.62746 10.1837 4.93369 9.36339C5.84649 9.8182 6.82254 10.1399 7.82627 10.3188C9.10489 10.5533 10.4149 10.5455 11.6898 10.3156C12.4155 10.1846 13.124 9.9759 13.8033 9.69783C14.1056 10.2005 14.3599 10.7301 14.5622 11.28ZM16.3742 12.2841C16.8126 14.3076 16.6797 16.4518 15.9801 18.4053C18.0557 17.1127 19.457 14.8396 19.5364 12.2354C18.5046 12.0484 17.429 12.0712 16.3742 12.2841ZM19.4349 10.7409C18.2923 10.5804 17.1172 10.6326 15.9694 10.8777C15.7433 10.2435 15.458 9.63256 15.118 9.05243C16.061 8.50777 16.9223 7.82226 17.6626 7.02292C18.568 8.05241 19.1974 9.33048 19.4349 10.7409ZM8.08424 8.88198C7.21227 8.72674 6.36532 8.44688 5.57495 8.05188C6.25471 6.94809 7.21105 6.03254 8.34748 5.40203L8.35623 5.40479L8.35656 5.40489L8.3566 5.40491L8.35662 5.40491C8.48042 5.44387 8.59862 5.48107 8.71243 5.52192C8.75443 5.53796 8.79554 5.55355 8.83574 5.56878L8.83637 5.56902L8.8364 5.56904L8.83642 5.56904C9.02098 5.63902 9.18578 5.70151 9.32345 5.76533L9.36274 5.78497L9.37211 5.78933C9.45904 5.82976 9.58431 5.88947 9.6972 5.9433C9.75719 5.97193 9.81373 5.99887 9.85915 6.02036L9.86084 6.02129C9.8988 6.04168 9.9307 6.05881 9.96043 6.07653C9.98461 6.09222 10.0062 6.10493 10.0178 6.11171C10.039 6.12411 10.0607 6.13638 10.0787 6.14636C10.094 6.15488 10.1091 6.16318 10.1203 6.16937L10.126 6.17249L10.138 6.17913L10.1396 6.18C10.1563 6.18965 10.1766 6.20123 10.1997 6.21445C10.2494 6.24277 10.3121 6.27858 10.381 6.31891C10.4296 6.34737 10.4751 6.37451 10.5121 6.39749C10.5397 6.41461 10.5547 6.42454 10.5604 6.42832L10.5607 6.42854C10.563 6.4301 10.5636 6.43046 10.5626 6.42974L10.5946 6.45399L10.6302 6.47511C10.6844 6.50729 10.7379 6.54427 10.8045 6.5904L10.8045 6.59041L10.8046 6.59043L10.8049 6.59062C10.8353 6.61169 10.8685 6.63467 10.9058 6.65998L10.9311 6.67716L10.9527 6.68931C10.9527 6.68935 10.9537 6.69003 10.9558 6.69148C10.9616 6.69538 10.9757 6.70486 11.0002 6.72242C11.0379 6.74942 11.0834 6.78331 11.1335 6.821L11.1929 6.86571C11.2234 6.88875 11.2543 6.91209 11.2807 6.93178C11.3154 6.9578 11.358 6.98938 11.3963 7.01599C11.9566 7.44446 12.4687 7.93371 12.9246 8.47297C12.4395 8.65045 11.9396 8.78709 11.4305 8.879C10.3209 9.07905 9.1875 9.08445 8.08806 8.88268L8.08615 8.88232L8.08424 8.88198ZM12 4.4598C13.7306 4.4598 15.325 5.0435 16.5974 6.02443C15.9303 6.74621 15.149 7.36092 14.2936 7.84197C13.7055 7.09445 13.0251 6.42144 12.2665 5.84357L12.2481 5.82962L12.2291 5.81693L12.224 5.81333C12.2199 5.81047 12.2145 5.80661 12.2076 5.80158C12.1936 5.79141 12.1762 5.77856 12.1554 5.76298C12.1318 5.74531 12.1081 5.72745 12.0827 5.70825L12.0826 5.70821L12.0774 5.70428C12.0568 5.68871 12.035 5.67223 12.0111 5.65427C11.9594 5.6154 11.9027 5.57312 11.8506 5.5358C11.8142 5.50971 11.7619 5.47282 11.7085 5.44028L11.6746 5.41684L11.6744 5.41671L11.6744 5.4167C11.6049 5.36856 11.5006 5.29635 11.4057 5.2381C11.3171 5.17598 11.1974 5.1052 11.1189 5.05925C11.0429 5.01477 10.9611 4.96808 10.9103 4.93909L10.9099 4.93886L10.8715 4.91686C10.8619 4.91129 10.8536 4.90669 10.8504 4.90489L10.85 4.90464L10.8302 4.89373L10.8236 4.89006C10.8122 4.88382 10.8009 4.87758 10.7891 4.87102C10.7756 4.86351 10.7647 4.85732 10.7568 4.85268L10.7513 4.84884L10.7319 4.837C10.6618 4.79416 10.5887 4.75503 10.5491 4.73379L10.5482 4.73334L10.5344 4.72594L10.5174 4.71681L10.5 4.70859C10.4652 4.69214 10.4137 4.66761 10.3552 4.63974C10.8846 4.52193 11.4351 4.4598 12 4.4598Z" fill="currentColor"/>
</svg>
