<svg width="24" height="24" viewBox="0 0 24 24" fill="none" xmlns="http://www.w3.org/2000/svg">
<path fill-rule="evenodd" clip-rule="evenodd" d="M12.0074 3.1499C7.02656 3.1499 3 7.20615 3 12.2243C3 16.2355 5.57996 19.631 9.15904 20.8327C9.60652 20.9231 9.77043 20.6375 9.77043 20.3972C9.77043 20.1869 9.75568 19.4658 9.75568 18.7145C7.25002 19.2554 6.72824 17.6327 6.72824 17.6327C6.32557 16.5811 5.72893 16.3108 5.72893 16.3108C4.90883 15.7549 5.78867 15.7549 5.78867 15.7549C6.69837 15.815 7.17572 16.6863 7.17572 16.6863C7.98089 18.0684 9.27833 17.6779 9.8003 17.4375C9.87478 16.8515 10.1135 16.4459 10.3671 16.2206C8.36863 16.0102 6.26602 15.229 6.26602 11.7434C6.26602 10.7519 6.6237 9.94061 7.19047 9.30968C7.10105 9.08437 6.7878 8.15273 7.28008 6.9058C7.28008 6.9058 8.04062 6.66538 9.75549 7.83726C10.4897 7.63863 11.2469 7.53758 12.0074 7.53673C12.768 7.53673 13.5433 7.64201 14.2592 7.83726C15.9743 6.66538 16.7348 6.9058 16.7348 6.9058C17.2271 8.15273 16.9137 9.08437 16.8242 9.30968C17.4059 9.94061 17.7489 10.7519 17.7489 11.7434C17.7489 15.229 15.6463 15.9951 13.6329 16.2206C13.9611 16.506 14.2443 17.0468 14.2443 17.9032C14.2443 19.1201 14.2295 20.0967 14.2295 20.3971C14.2295 20.6375 14.3936 20.9231 14.8409 20.8329C18.42 19.6308 21 16.2355 21 12.2243C21.0147 7.20615 16.9734 3.1499 12.0074 3.1499Z" fill="currentColor"/>
</svg>
