<svg width="24" height="24" viewBox="0 0 24 24" fill="none" xmlns="http://www.w3.org/2000/svg">
<path d="M8.09766 8.21493C8.32538 7.51321 8.74287 6.88824 9.30371 6.40894C9.86455 5.92963 10.5468 5.61496 11.2754 5.49935C12.004 5.38375 12.751 5.47197 13.4326 5.75415C14.1143 6.03632 14.704 6.50161 15.1377 7.09839C15.5714 7.69516 15.8318 8.40003 15.8898 9.1355C15.9478 9.87096 15.8008 10.608 15.4659 11.2654C15.1311 11.9227 14.6215 12.4751 13.9925 12.8606C13.3635 13.2461 12.6401 13.4501 11.9023 13.4501V14.4498M11.9521 18.4499V18.5499L11.8525 18.5501V18.4499H11.9521Z" stroke="currentColor" stroke-width="2" stroke-linecap="round" stroke-linejoin="round"/>
</svg>
