<svg width="24" height="24" viewBox="0 0 24 24" fill="none" xmlns="http://www.w3.org/2000/svg">
<path d="M14.2884 6.3426C14.4835 7.18268 15.2258 7.8085 16.1122 7.8085C17.147 7.8085 17.9859 6.95592 17.9859 5.90425C17.9859 4.85258 17.147 4 16.1122 4C15.2073 4 14.4527 4.65171 14.277 5.51858C12.7616 5.68374 11.5783 6.98984 11.5783 8.5727C11.5783 8.57627 11.5783 8.57895 11.5783 8.58252C9.93031 8.65305 8.42548 9.12978 7.23075 9.88238C6.78712 9.53331 6.23016 9.3253 5.62577 9.3253C4.1754 9.3253 3 10.5198 3 11.9938C3 13.0633 3.61845 13.9846 4.51186 14.4104C4.59883 17.5083 7.92035 20 12.0061 20C16.0919 20 19.4179 17.5056 19.5004 14.4051C20.3868 13.9766 21 13.0579 21 11.9946C21 10.5207 19.8246 9.32619 18.3742 9.32619C17.7725 9.32619 17.2182 9.53242 16.7754 9.87881C15.5701 9.12086 14.0486 8.64412 12.3839 8.58074C12.3839 8.57806 12.3839 8.57627 12.3839 8.5736C12.3839 7.43979 13.2132 6.49883 14.2884 6.34438V6.3426ZM7.12533 13.6873C7.16925 12.7196 7.80176 11.9768 8.53704 11.9768C9.27233 11.9768 9.83455 12.7615 9.79063 13.7293C9.74671 14.697 9.19766 15.0488 8.46149 15.0488C7.72533 15.0488 7.08141 14.6551 7.12533 13.6873ZM15.4761 11.9768C16.2123 11.9768 16.8448 12.7196 16.8878 13.6873C16.9318 14.6551 16.287 15.0488 15.5517 15.0488C14.8164 15.0488 14.2665 14.6979 14.2225 13.7293C14.1786 12.7615 14.74 11.9768 15.4761 11.9768ZM14.6012 15.9263C14.7391 15.9406 14.8269 16.0862 14.7734 16.2165C14.3209 17.3155 13.2527 18.0877 12.0061 18.0877C10.7596 18.0877 9.69224 17.3155 9.23895 16.2165C9.18536 16.0862 9.27321 15.9406 9.41113 15.9263C10.2193 15.8433 11.0934 15.7978 12.0061 15.7978C12.9189 15.7978 13.7921 15.8433 14.6012 15.9263Z" fill="currentColor"/>
</svg>
