<svg width="24" height="24" viewBox="0 0 24 24" fill="none" xmlns="http://www.w3.org/2000/svg">
<path fill-rule="evenodd" clip-rule="evenodd" d="M11.0312 3.06697C6.83223 3.52536 4.34614 6.34023 4.03459 10.9891C3.5712 17.9026 7.80784 22.016 14.1211 20.7825C19.5707 19.7176 21.1959 13.6002 16.6116 11.4074C16.3628 11.2884 16.259 11.2108 16.2439 11.1323C16.2323 11.0722 16.1975 10.8324 16.1665 10.5994C15.7278 7.30019 11.6526 5.97947 9.23275 8.35223C8.66629 8.90771 8.64466 8.79878 9.42226 9.30693C10.0747 9.73333 10.0747 9.73333 10.3646 9.45301C11.7172 8.14524 14.1083 8.71518 14.5072 10.4404C14.583 10.7683 14.6089 10.751 14.1252 10.6965C13.4188 10.6167 11.6762 10.6777 11.2073 10.7985C7.06319 11.8665 8.02054 16.8588 12.3356 16.6819C14.3496 16.5994 15.6475 15.4616 16.0893 13.3912C16.1962 12.8903 16.2721 12.898 16.8467 13.4679C18.9379 15.5424 16.909 18.888 13.2964 19.3224C7.97587 19.9622 5.02479 16.5001 5.70298 10.4143C6.12194 6.65507 8.40706 4.5996 12.1632 4.60349C15.2829 4.60671 17.5478 6.08061 18.3279 8.61536C18.4776 9.10179 18.4256 9.0868 19.24 8.87805C20.1296 8.65003 20.0738 8.71138 19.8866 8.16837C18.641 4.55358 15.2593 2.60542 11.0312 3.06697ZM13.8233 12.2644C14.6797 12.3547 14.6215 12.3238 14.5844 12.668C14.3504 14.8344 12.1307 15.9417 10.6109 14.6502C9.09908 13.3654 10.9843 11.9653 13.8233 12.2644Z" fill="#282828"/>
</svg>
